<svg id="Layer_1" data-name="Layer 1" xmlns="http://www.w3.org/2000/svg" viewBox="0 0 92.21 82.54"><defs><style>.cls-1{fill:#4effef;}</style></defs><title>happy1</title><path class="cls-1" d="M65.42,47.7A3.39,3.39,0,1,0,62,44.31,3.4,3.4,0,0,0,65.42,47.7Z" transform="translate(-4.2 -9.13)"/><path class="cls-1" d="M35.46,47.7a3.39,3.39,0,1,0-3.39-3.39A3.4,3.4,0,0,0,35.46,47.7Z" transform="translate(-4.2 -9.13)"/><path class="cls-1" d="M50.38,58.14a3.4,3.4,0,0,0,3.39-3.39V42.22a3.39,3.39,0,0,0-6.79,0V54.75A3.4,3.4,0,0,0,50.38,58.14Z" transform="translate(-4.2 -9.13)"/><path class="cls-1" d="M92.81,37.6H89.69a41.22,41.22,0,0,0-78.42,0,3.55,3.55,0,0,0-.5-0.05h-3a3.61,3.61,0,0,0-3.6,3.6v17a3.61,3.61,0,0,0,3.6,3.6h3.06a41.21,41.21,0,0,0,79.25,0h2.69a3.61,3.61,0,0,0,3.6-3.6v-17A3.61,3.61,0,0,0,92.81,37.6ZM50.49,86A35.63,35.63,0,1,1,86.12,50.4,35.67,35.67,0,0,1,50.49,86Z" transform="translate(-4.2 -9.13)"/><path class="cls-1" d="M72.58,61.16a46.33,46.33,0,0,1-21.71,5.12A52.18,52.18,0,0,1,28.3,61a2.82,2.82,0,0,0-1.22-.28,2.84,2.84,0,0,0-1.22,5.41A58.11,58.11,0,0,0,51,72,51,51,0,0,0,75.5,66,2.84,2.84,0,0,0,72.58,61.16Z" transform="translate(-4.2 -9.13)"/></svg>