<svg id="Layer_1" data-name="Layer 1" xmlns="http://www.w3.org/2000/svg" viewBox="0 0 91.4 81.82"><defs><style>.cls-1{fill:#4effef;}</style></defs><title>happy2</title><path class="cls-1" d="M65,38.18a3.36,3.36,0,1,0-3.36-3.36A3.37,3.37,0,0,0,65,38.18Z" transform="translate(-4.3 -9.65)"/><path class="cls-1" d="M35.28,38.18a3.36,3.36,0,1,0-3.36-3.36A3.37,3.37,0,0,0,35.28,38.18Z" transform="translate(-4.3 -9.65)"/><path class="cls-1" d="M50.08,48.53a3.37,3.37,0,0,0,3.36-3.36V32.75a3.36,3.36,0,0,0-6.73,0V45.17A3.37,3.37,0,0,0,50.08,48.53Z" transform="translate(-4.3 -9.65)"/><path class="cls-1" d="M92.13,37.87H89a40.86,40.86,0,0,0-77.73,0,3.52,3.52,0,0,0-.49,0H7.87A3.58,3.58,0,0,0,4.3,41.44V58.27a3.58,3.58,0,0,0,3.57,3.57h3a40.85,40.85,0,0,0,78.56,0h2.67a3.58,3.58,0,0,0,3.57-3.57V41.44A3.58,3.58,0,0,0,92.13,37.87Zm-41.94,48A35.32,35.32,0,1,1,85.5,50.56,35.36,35.36,0,0,1,50.18,85.87Z" transform="translate(-4.3 -9.65)"/><path class="cls-1" d="M78.46,53.79a2.53,2.53,0,0,0-2-.94H24a2.53,2.53,0,0,0-2.48,3.05,29.35,29.35,0,0,0,57.43,0A2.53,2.53,0,0,0,78.46,53.79ZM50.25,74.13a24.4,24.4,0,0,1-22.9-16.21h45.8A24.4,24.4,0,0,1,50.25,74.13Z" transform="translate(-4.3 -9.65)"/></svg>