<svg id="Layer_1" data-name="Layer 1" xmlns="http://www.w3.org/2000/svg" viewBox="0 0 94 84.15"><defs><style>.cls-1{fill:#4effef;}</style></defs><title>neutral</title><path class="cls-1" d="M65.41,44.08A3.46,3.46,0,1,0,62,40.62,3.46,3.46,0,0,0,65.41,44.08Z" transform="translate(-3 -7.93)"/><path class="cls-1" d="M34.86,44.08a3.46,3.46,0,1,0-3.46-3.46A3.46,3.46,0,0,0,34.86,44.08Z" transform="translate(-3 -7.93)"/><path class="cls-1" d="M50.08,54.73a3.46,3.46,0,0,0,3.46-3.46V38.49a3.46,3.46,0,0,0-6.92,0V51.27A3.46,3.46,0,0,0,50.08,54.73Z" transform="translate(-3 -7.93)"/><path class="cls-1" d="M93.33,37H90.15a42,42,0,0,0-79.94,0A3.62,3.62,0,0,0,9.7,37h-3A3.68,3.68,0,0,0,3,40.63v17.3A3.68,3.68,0,0,0,6.67,61.6H9.79a42,42,0,0,0,80.79,0h2.74A3.68,3.68,0,0,0,97,57.93V40.63A3.68,3.68,0,0,0,93.33,37ZM86.51,50A36.32,36.32,0,1,1,50.19,13.68,36.36,36.36,0,0,1,86.51,50Z" transform="translate(-3 -7.93)"/><path class="cls-1" d="M72.72,59.8H29A2.61,2.61,0,0,0,29,65H72.72A2.61,2.61,0,0,0,72.72,59.8Z" transform="translate(-3 -7.93)"/></svg>