<svg id="Layer_1" data-name="Layer 1" xmlns="http://www.w3.org/2000/svg" viewBox="0 0 93.34 83.55"><defs><style>.cls-1{fill:#4effef;}</style></defs><title>sad1</title><path class="cls-1" d="M65.35,47.56a3.43,3.43,0,1,0-3.43-3.43A3.44,3.44,0,0,0,65.35,47.56Z" transform="translate(-3.39 -8.51)"/><path class="cls-1" d="M35,47.56a3.43,3.43,0,1,0-3.43-3.43A3.44,3.44,0,0,0,35,47.56Z" transform="translate(-3.39 -8.51)"/><path class="cls-1" d="M50.13,58.13a3.44,3.44,0,0,0,3.43-3.43V42a3.43,3.43,0,0,0-6.87,0V54.69A3.44,3.44,0,0,0,50.13,58.13Z" transform="translate(-3.39 -8.51)"/><path class="cls-1" d="M93.08,37.33H89.92a41.72,41.72,0,0,0-79.38,0,3.6,3.6,0,0,0-.5-0.05H7A3.65,3.65,0,0,0,3.39,41V58.16A3.65,3.65,0,0,0,7,61.81h3.09a41.72,41.72,0,0,0,80.22,0h2.72a3.65,3.65,0,0,0,3.65-3.65V41A3.65,3.65,0,0,0,93.08,37.33Zm-42.83,49A36.07,36.07,0,1,1,86.31,50.29,36.11,36.11,0,0,1,50.24,86.35Z" transform="translate(-3.39 -8.51)"/><path class="cls-1" d="M49.89,60.77a51.69,51.69,0,0,0-24.83,6.07,2.88,2.88,0,0,0,3,4.93,46.85,46.85,0,0,1,22-5.18A52.82,52.82,0,0,1,72.84,71.9a2.85,2.85,0,0,0,1.24.28,2.88,2.88,0,0,0,1.24-5.47A58.82,58.82,0,0,0,49.89,60.77Z" transform="translate(-3.39 -8.51)"/></svg>