<svg id="Layer_1" data-name="Layer 1" xmlns="http://www.w3.org/2000/svg" viewBox="0 0 91.68 82.07"><defs><style>.cls-1{fill:#4effef;}</style></defs><title>sad2</title><path class="cls-1" d="M50.13,52a3.38,3.38,0,0,0,3.37-3.37V36.2a3.37,3.37,0,1,0-6.75,0V48.66A3.38,3.38,0,0,0,50.13,52Z" transform="translate(-4.21 -8.38)"/><path class="cls-1" d="M92.31,33.8h-3a3.54,3.54,0,0,0-1.12.2,41,41,0,0,0-77,2.74,3.53,3.53,0,0,0-.5-0.05h-3a3.59,3.59,0,0,0-3.58,3.58V57.15A3.59,3.59,0,0,0,7.8,60.73h3a41,41,0,0,0,79.52-2.88h2a3.59,3.59,0,0,0,3.58-3.58V37.38A3.59,3.59,0,0,0,92.31,33.8ZM85.66,49.42A35.43,35.43,0,1,1,50.24,14,35.46,35.46,0,0,1,85.66,49.42Z" transform="translate(-4.21 -8.38)"/><path class="cls-1" d="M28.57,55a5.68,5.68,0,0,0-5.67,5.67v8.21a5.68,5.68,0,0,0,5.67,5.67H71.7a5.68,5.68,0,0,0,5.67-5.67V60.65A5.68,5.68,0,0,0,71.7,55H28.57Zm19.75,8H43.48V60.06h4.83v2.88Zm3.63-2.88H57v2.88H51.95V60.06Zm-12.1,2.88h-4.3V60.06h4.3v2.88Zm0,3.63v2.88h-4.3V66.57h4.3Zm3.63,0h4.83v2.88H43.48V66.57Zm8.47,0H57v2.88H51.95V66.57Zm8.72,0h4v2.88h-4V66.57Zm0-3.63V60.06h4v2.88h-4Zm-32.1-2.88h3.35v2.88H28V60.65A0.6,0.6,0,0,1,28.57,60.06ZM28,68.86V66.57h3.94v2.88H28.57A0.6,0.6,0,0,1,28,68.86ZM71.7,69.45H68.35V66.57h3.94v2.29A0.6,0.6,0,0,1,71.7,69.45Zm0.59-8.8v2.29H68.35V60.06H71.7A0.6,0.6,0,0,1,72.29,60.65Z" transform="translate(-4.21 -8.38)"/><path class="cls-1" d="M74.62,33a2.54,2.54,0,0,0-3.56.53s-2.26,2.94-5.55,3.19c-2.28.17-4.7-1-7.17-3.47a2.54,2.54,0,1,0-3.59,3.59,17,17,0,0,0,7,4.46,3.37,3.37,0,0,0,6.73,0,14.59,14.59,0,0,0,6.7-4.72A2.54,2.54,0,0,0,74.62,33Z" transform="translate(-4.21 -8.38)"/><path class="cls-1" d="M31.92,41.17h0a3.37,3.37,0,0,0,6.73.13,14.51,14.51,0,0,0,7-4.81,2.54,2.54,0,1,0-4.09-3S39.27,36.43,36,36.67c-2.28.17-4.7-1-7.17-3.47a2.54,2.54,0,1,0-3.59,3.59A17.19,17.19,0,0,0,31.92,41.17Z" transform="translate(-4.21 -8.38)"/></svg>